<?xml version="1.0" encoding="UTF-8"?>
<svg version="1.1" xmlns="http://www.w3.org/2000/svg" width="205" height="205">
<path d="M0 0 C2.94101365 1.38192208 5.49673969 2.98034018 8.1171875 4.8984375 C8.88933594 5.46046875 9.66148437 6.0225 10.45703125 6.6015625 C11.25496094 7.18679687 12.05289063 7.77203125 12.875 8.375 C17.85682999 12.01588064 22.83209646 15.6267382 28 19 C27.33268182 22.81340971 25.5823845 25.60536965 23.5703125 28.8828125 C23.22370071 29.45069489 22.87708893 30.01857727 22.51997375 30.60366821 C21.39320769 32.44715931 20.25919033 34.28606918 19.125 36.125 C18.35115901 37.38804941 17.57780473 38.65139715 16.80493164 39.91503906 C15.26382671 42.43302024 13.71993298 44.94925333 12.17333984 47.46386719 C9.73047766 51.43624688 7.30098632 55.41673244 4.87255859 59.39794922 C2.91844731 62.60072365 0.959478 65.80050677 -1 69 C-4.59710114 68.43303134 -7.20164593 67.50174926 -10.3125 65.625 C-20.12629052 60.04017842 -30.58232921 57.1958528 -41.83984375 60.19921875 C-45.82193585 61.67540117 -49.39278387 63.78169373 -53 66 C-54.66645895 67.00034612 -56.33307625 68.00042859 -58 69 C-65.35555534 60.31953097 -71.70990812 50.94640062 -78.18652344 41.60693359 C-81.0619994 37.47334011 -83.96761435 33.36118385 -86.875 29.25 C-87.39288086 28.5170874 -87.91076172 27.7841748 -88.44433594 27.02905273 C-89.6291734 25.35243047 -90.81452244 23.67616974 -92 22 C-87.92859454 17.74534146 -83.52605268 14.05930078 -78.9375 10.375 C-77.87692383 9.51648438 -77.87692383 9.51648438 -76.79492188 8.640625 C-74.86931448 7.08567442 -72.94303515 5.5331219 -71 4 C-70.30463135 3.44393066 -69.6092627 2.88786133 -68.89282227 2.31494141 C-67 1 -67 1 -65 1 C-64.61666504 1.79696289 -64.23333008 2.59392578 -63.83837891 3.41503906 C-62.41105134 6.38211624 -60.98344968 9.34906121 -59.55566406 12.31591797 C-58.93869271 13.59809191 -58.32182949 14.88031788 -57.70507812 16.16259766 C-56.8166933 18.00957837 -55.92791509 19.85636935 -55.0390625 21.703125 C-54.23782959 23.36843262 -54.23782959 23.36843262 -53.42041016 25.06738281 C-52.29680581 27.38720671 -51.1605371 29.69851293 -50 32 C-49.48953125 31.79503906 -48.9790625 31.59007813 -48.453125 31.37890625 C-36.85092332 27.07950882 -24.27051187 26.75717808 -12.75 31.625 C-11.8425 32.07875 -10.935 32.5325 -10 33 C-9.86464844 32.37738281 -9.72929688 31.75476563 -9.58984375 31.11328125 C-7.12084867 20.51286526 -3.52310184 10.28739956 0 0 Z " fill="#8F3720" transform="translate(134,17)"/>
<path d="M0 0 C0.66 0 1.32 0 2 0 C3.8875646 3.74502267 5.75657536 7.49856987 7.60913086 11.26098633 C8.24150881 12.53885941 8.87883777 13.81429506 9.52124023 15.0871582 C10.44535745 16.92036052 11.35114341 18.7616754 12.25390625 20.60546875 C12.80377197 21.71043701 13.3536377 22.81540527 13.92016602 23.95385742 C15.10060694 27.28380573 15.25096361 28.7247816 14 32 C12.57299805 33.62158203 12.57299805 33.62158203 10.76171875 35.0078125 C10.10623047 35.51957031 9.45074219 36.03132813 8.77539062 36.55859375 C7.74188477 37.33396484 7.74188477 37.33396484 6.6875 38.125 C6.01009766 38.64964844 5.33269531 39.17429688 4.63476562 39.71484375 C2.7667528 41.1573952 0.88715444 42.58262542 -1 44 C-1.81855469 44.61617187 -2.63710937 45.23234375 -3.48046875 45.8671875 C-3.98191406 46.24101563 -4.48335937 46.61484375 -5 47 C-4.55891159 50.67573676 -4.11487849 54.33089858 -3.48828125 57.98046875 C-1.04978849 72.73248524 -1.31355689 87.29652121 -4 102 C-3.44538086 102.34256836 -2.89076172 102.68513672 -2.31933594 103.03808594 C0.20730719 104.60310412 2.72866183 106.17645078 5.25 107.75 C6.12269531 108.28882813 6.99539062 108.82765625 7.89453125 109.3828125 C8.73886719 109.91132813 9.58320313 110.43984375 10.453125 110.984375 C11.22817383 111.46616211 12.00322266 111.94794922 12.80175781 112.44433594 C15.13543206 114.0958433 17.03705569 115.92756875 19 118 C17.31009742 121.95133957 15.61940567 125.90234023 13.92797852 129.85302734 C13.35256542 131.19733519 12.77736889 132.54173575 12.20239258 133.88623047 C11.37638219 135.81762664 10.54959607 137.74868912 9.72265625 139.6796875 C9.22515869 140.84226074 8.72766113 142.00483398 8.21508789 143.20263672 C7.5133521 144.8181659 6.78770142 146.42459716 6 148 C1.56592044 147.49773258 -0.48523951 146.04876371 -3.6875 143 C-4.99654297 141.77410156 -4.99654297 141.77410156 -6.33203125 140.5234375 C-7.21246094 139.69070312 -8.09289062 138.85796875 -9 138 C-10.62074295 136.53693698 -12.24569323 135.07852005 -13.875 133.625 C-16.66305418 131.11972786 -19.43766397 128.60146017 -22.19140625 126.05859375 C-23.00085693 125.31198486 -23.00085693 125.31198486 -23.82666016 124.55029297 C-24.87882113 123.57850319 -25.92935222 122.60494493 -26.97802734 121.62939453 C-29.24414525 119.5365993 -31.42516507 117.71655662 -34 116 C-33.37793156 111.36983151 -32.13594753 107.30795285 -30.5 102.9375 C-23.73194341 84.81720895 -26.25530097 65.72866145 -33.8125 48.25 C-34.25207031 47.32703125 -34.69164062 46.4040625 -35.14453125 45.453125 C-36.12504585 42.64142103 -36.22242397 41.69040036 -35 39 C-33.1796875 36.703125 -33.1796875 36.703125 -30.875 34.25 C-30.05644531 33.36699219 -29.23789063 32.48398438 -28.39453125 31.57421875 C-27.60433594 30.72472656 -26.81414062 29.87523438 -26 29 C-24.84792162 27.69297832 -23.70151064 26.38092521 -22.5625 25.0625 C-18.91971208 20.87878765 -15.17628468 16.78925104 -11.4375 12.69140625 C-8.71055566 9.68040521 -6.03228216 6.63107624 -3.375 3.55859375 C-2.2934584 2.33264177 -1.156004 1.156004 0 0 Z " fill="#FA9528" transform="translate(173,57)"/>
<path d="M0 0 C3.57234649 1.25691537 5.98798076 2.60226253 8.70703125 5.23046875 C9.37669922 5.86919922 10.04636719 6.50792969 10.73632812 7.16601562 C11.42146484 7.83310547 12.10660156 8.50019531 12.8125 9.1875 C14.17187666 10.49484311 15.53255261 11.80083658 16.89453125 13.10546875 C17.5714502 13.75427002 18.24836914 14.40307129 18.94580078 15.0715332 C21.60285684 17.56595747 24.34189835 19.95586344 27.09643555 22.34155273 C29.94447429 24.82285672 32.72336388 27.37690317 35.5 29.9375 C36.03625 30.43056641 36.5725 30.92363281 37.125 31.43164062 C38.41745474 32.62023739 39.70884799 33.80998823 41 35 C40.38125 36.8253125 40.38125 36.8253125 39.75 38.6875 C38.42437226 42.67700825 37.13523079 46.67683849 35.875 50.6875 C35.54242188 51.74324219 35.20984375 52.79898438 34.8671875 53.88671875 C30.55242027 69.37712182 32.24158653 87.49638078 39.8125 101.75 C40.25207031 102.46671875 40.69164062 103.1834375 41.14453125 103.921875 C42.35107584 106.85284177 42.12808365 108.0192559 41 111 C39.15745439 113.56059367 37.06484425 115.86174141 34.9375 118.1875 C33.7407653 119.52998355 32.54544981 120.87373359 31.3515625 122.21875 C30.77180664 122.8684375 30.19205078 123.518125 29.59472656 124.1875 C26.94258413 127.20181497 24.47148343 130.35071805 21.98828125 133.50390625 C18.08132665 138.40870781 14.02879143 143.19517087 10 148 C8.22021484 147.8527832 8.22021484 147.8527832 6 147 C3.49907237 143.55889734 1.5940153 139.7938905 -0.39306641 136.03588867 C-1.37207991 134.19299677 -2.3813855 132.3692239 -3.39453125 130.54492188 C-4.32458984 128.81145508 -4.32458984 128.81145508 -5.2734375 127.04296875 C-5.84497559 125.98102295 -6.41651367 124.91907715 -7.00537109 123.82495117 C-8 121 -8 121 -7.42871094 118.83813477 C-5.7616571 116.69335549 -4.03081093 115.19244775 -1.8671875 113.546875 C-1.06152344 112.928125 -0.25585938 112.309375 0.57421875 111.671875 C1.41597656 111.03765625 2.25773437 110.4034375 3.125 109.75 C4.39923828 108.77546875 4.39923828 108.77546875 5.69921875 107.78125 C7.79430856 106.18050722 9.8945977 104.58713967 12 103 C11.86674316 102.29528564 11.73348633 101.59057129 11.59619141 100.86450195 C8.28879965 82.95146258 7.69053713 66.08555561 10 48 C8.74896484 47.23816406 8.74896484 47.23816406 7.47265625 46.4609375 C0.88965731 42.43422337 -5.61406382 38.33535546 -12 34 C-9.8298389 26.30040211 -7.15907228 18.84781973 -4.3125 11.375 C-3.89677734 10.27542969 -3.48105469 9.17585938 -3.05273438 8.04296875 C-2.03818089 5.36081585 -1.02055394 2.67987417 0 0 Z " fill="#FEF690" transform="translate(26,57)"/>
<path d="M0 0 C4.53305243 2.73871918 5.67981875 4.94987435 7 10 C7.29764511 12.98458155 7.32493826 15.93987817 7.3125 18.9375 C7.32861328 19.71029297 7.34472656 20.48308594 7.36132812 21.27929688 C7.36582116 26.59455534 6.5401878 30.30630405 4 35 C-4.53936892 41.76033373 -8.49276753 40 -21 40 C-21 26.14 -21 12.28 -21 -2 C-13.77382211 -4.40872596 -6.88672569 -2.76180221 0 0 Z " fill="#FEF58F" transform="translate(22,113)"/>
<path d="M0 0 C1.05445313 -0.00257812 2.10890625 -0.00515625 3.1953125 -0.0078125 C5.875 0.125 5.875 0.125 7.875 1.125 C7.875 14.985 7.875 28.845 7.875 43.125 C-10.5387931 43.125 -10.5387931 43.125 -15.75 38.765625 C-20.58345625 33.437838 -20.32713292 27.59499288 -20.375 20.75 C-20.395625 20.02039063 -20.41625 19.29078125 -20.4375 18.5390625 C-20.47472932 13.32695742 -19.6369853 9.72164436 -17.125 5.125 C-12.24084461 0.70546264 -6.31207461 -0.01550878 0 0 Z " fill="#FA9628" transform="translate(196.125,109.875)"/>
<path d="M0 0 C10.89 0 21.78 0 33 0 C33 10.56 33 21.12 33 32 C22.11 32 11.22 32 0 32 C0 21.44 0 10.88 0 0 Z " fill="#903821" transform="translate(86,3)"/>
<path d="M0 0 C0.66 0.33 1.32 0.66 2 1 C0.73046875 2.49739583 -0.5390625 3.99479167 -1.80859375 5.4921875 C-3.0878152 7.00594079 -3.0878152 7.00594079 -4 9 C-4.66 7.68 -5.32 6.36 -6 5 C-4.02 3.35 -2.04 1.7 0 0 Z " fill="#842D19" transform="translate(48,33)"/>
</svg>
